<?xml version="1.0" ?><svg height="256px" id="SVGRoot" version="1.1" viewBox="0 0 256 256" width="256px" xmlns="http://www.w3.org/2000/svg" xmlns:cc="http://creativecommons.org/ns#" xmlns:dc="http://purl.org/dc/elements/1.1/" xmlns:inkscape="http://www.inkscape.org/namespaces/inkscape" xmlns:rdf="http://www.w3.org/1999/02/22-rdf-syntax-ns#" xmlns:sodipodi="http://sodipodi.sourceforge.net/DTD/sodipodi-0.dtd" xmlns:svg="http://www.w3.org/2000/svg"><defs id="defs5435"/><g id="layer1"><path d="M 110.9,51.743242 A 40.208108,40.208108 0 0 0 71.493455,83.962805 c -13.924496,6.968651 -23.447509,21.341935 -23.447509,38.029085 0,1.12659 0.05744,2.23945 0.142621,3.34346 -12.293534,7.43646 -20.477756,20.928 -20.477756,36.40249 0,23.55548 18.963438,42.51892 42.518919,42.51892 l 115.54054,0 c 23.55548,0 42.51892,-18.96344 42.51892,-42.51892 0,-20.39369 -14.21858,-37.33545 -33.32081,-41.51877 C 194.04432,97.492889 175.45563,79.472972 152.4946,79.472972 l -3.4247,0 A 40.208108,40.208108 0 0 0 110.9,51.743242 Z" id="rect9844" style="color:#000000;display:inline;overflow:visible;visibility:visible;opacity:1;fill:#eafdff;fill-opacity:1;stroke:#bce7ff;stroke-width:18.48648643;stroke-linecap:round;stroke-linejoin:round;stroke-miterlimit:4;stroke-dasharray:none;stroke-dashoffset:0;stroke-opacity:1;marker:none;enable-background:accumulate"/></g></svg>